<svg width="40" height="40" xmlns="http://www.w3.org/2000/svg">

 <g>
  <title>background</title>
  <rect fill="none" id="canvas_background" height="42" width="42" y="-1" x="-1"/>
 </g>
 <g>
  <title>Layer 1</title>
  <ellipse stroke="null" ry="39.783784" rx="39.783784" id="svg_2" cy="39.83784" cx="0.162158" stroke-opacity="null" stroke-width="null" fill="#e01a4f"/>
  <path fill="#ffffff" id="svg_1" d="m21.567568,16.783783l-2,-3l-8,0l-2,3l-6,0l0,17l24,0l0,-17l-6,0zm4,7l-4.079,0c0.581,3.754 -2.312,7 -5.921,7c-3.612,0 -6.501,-3.248 -5.921,-7l-4.079,0l0,-5l5.07,0l2,-3l5.859,0l2,3l5.071,0l0,5zm-10,-3c-2.243,0 -4,1.73 -4,3.939c0,2.239 1.794,4.061 4,4.061s4,-1.822 4,-4.061c0,-2.209 -1.757,-3.939 -4,-3.939zm-0.436,3.555c-0.632,0.503 -1.461,0.5 -1.852,-0.006c-0.39,-0.506 -0.194,-1.324 0.438,-1.827c0.632,-0.502 1.461,-0.499 1.851,0.007c0.391,0.505 0.195,1.323 -0.437,1.826z"/>
 </g>
</svg>